<svg width="240" height="300" fill="none" xmlns="http://www.w3.org/2000/svg"><path d="M225 0h10v.5h4.5V5h.5v10h-.5v10h.5v10h-.5v10h.5v10h-.5v10h.5v10h-.5v10h.5v10h-.5v10h.5v10h-.5v10h.5v10h-.5v10h.5v10h-.5v10h.5v10h-.5v10h.5v10h-.5v10h.5v10h-.5v10h.5v10h-.5v10h.5v10h-.5v10h.5v10h-.5v10h.5v10h-.5v4.5H235v.5h-10v-.5h-10v.5h-10v-.5h-10v.5h-10v-.5h-10v.5h-10v-.5h-10v.5h-10v-.5h-10v.5h-10v-.5h-10v.5h-10v-.5H95v.5H85v-.5H75v.5H65v-.5H55v.5H45v-.5H35v.5H25v-.5H15v.5H5v-.5H.5V295H0v-10h.5v-10H0v-10h.5v-10H0v-10h.5v-10H0v-10h.5v-10H0v-10h.5v-10H0v-10h.5v-10H0v-10h.5v-10H0v-10h.5v-10H0v-10h.5v-10H0v-10h.5V95H0V85h.5v-5c0-1.749.056-3.484.168-5.205l-.5-.032c.229-3.526.685-6.99 1.355-10.376l.49.097A78.909 78.909 0 0 1 4.7 54.436l-.473-.16a79.497 79.497 0 0 1 4.008-9.667l.448.222a79.412 79.412 0 0 1 5.208-9.002l-.415-.278a80.327 80.327 0 0 1 6.377-8.3l.375.33a79.998 79.998 0 0 1 7.355-7.354l-.33-.375a80.328 80.328 0 0 1 8.299-6.377l.278.415a79.397 79.397 0 0 1 9.002-5.208l-.222-.448a79.498 79.498 0 0 1 9.666-4.008l.161.473a78.907 78.907 0 0 1 10.048-2.686l-.097-.49A80.049 80.049 0 0 1 74.763.169l.032.499A80.706 80.706 0 0 1 80 .5h5V0h10v.5h10V0h10v.5h10V0h10v.5h10V0h10v.5h10V0h10v.5h10V0h10v.5h10V0h10v.5h10V0Z" stroke="#FDFDFD" stroke-linejoin="round" stroke-dasharray="10 10"/></svg>