<svg width="240" height="300" fill="none" xmlns="http://www.w3.org/2000/svg"><path d="M0 15V5h.5V.5H5V0h10v.5h10V0h10v.5h10V0h10v.5h10V0h10v.5h10V0h10v.5h10V0h10v.5h10V0h10v.5h10V0h10v.5h5c1.749 0 3.484.056 5.205.168l.032-.5a80.25 80.25 0 0 1 10.376 1.355l-.097.49c3.434.68 6.788 1.58 10.048 2.686l.161-.473a79.54 79.54 0 0 1 9.666 4.008l-.222.448a79.418 79.418 0 0 1 9.002 5.208l.278-.415a80.22 80.22 0 0 1 8.299 6.377l-.33.375a79.994 79.994 0 0 1 7.354 7.355l.376-.33a80.328 80.328 0 0 1 6.377 8.299l-.415.278a79.48 79.48 0 0 1 5.208 9.002l.448-.222a79.558 79.558 0 0 1 4.008 9.666l-.473.161a79.055 79.055 0 0 1 2.686 10.048l.49-.097a80.067 80.067 0 0 1 1.354 10.376l-.499.032c.112 1.72.168 3.456.168 5.205v5h.5v10h-.5v10h.5v10h-.5v10h.5v10h-.5v10h.5v10h-.5v10h.5v10h-.5v10h.5v10h-.5v10h.5v10h-.5v10h.5v10h-.5v10h.5v10h-.5v10h.5v10h-.5v10h.5v10h-.5v4.5H235v.5h-10v-.5h-10v.5h-10v-.5h-10v.5h-10v-.5h-10v.5h-10v-.5h-10v.5h-10v-.5h-10v.5h-10v-.5h-10v.5h-10v-.5H95v.5H85v-.5H75v.5H65v-.5H55v.5H45v-.5H35v.5H25v-.5H15v.5H5v-.5H.5V295H0v-10h.5v-10H0v-10h.5v-10H0v-10h.5v-10H0v-10h.5v-10H0v-10h.5v-10H0v-10h.5v-10H0v-10h.5v-10H0v-10h.5v-10H0v-10h.5v-10H0v-10h.5V95H0V85h.5V75H0V65h.5V55H0V45h.5V35H0V25h.5V15H0Z" stroke="#FDFDFD" stroke-linejoin="round" stroke-dasharray="10 10"/></svg>