<svg width="540" height="286" fill="none" xmlns="http://www.w3.org/2000/svg"><path d="M525 0h10v.5h4.5v4.607h.5v10.215h-.5v10.214h.5V35.75h-.5v10.214h.5V56.18h-.5v10.214h.5v10.214h-.5v10.215h.5v10.214h-.5v10.214h.5v10.214h-.5v10.215h.5v10.214h-.5v10.214h.5v10.214h-.5v10.215h.5v10.214h-.5v10.214h.5v10.215h-.5v10.214h.5v10.214h-.5v10.214h.5v10.215h-.5v10.214h.5v10.214h-.5v10.215h.5v10.214h-.5v4.607H535v.5h-10v-.5h-10v.5h-10v-.5h-10v.5h-10v-.5h-10v.5h-10v-.5h-10v.5h-10v-.5h-10v.5h-10v-.5h-10v.5h-10v-.5h-10v.5h-10v-.5h-10v.5h-10v-.5h-10v.5h-10v-.5h-10v.5h-10v-.5h-10v.5h-10v-.5h-10v.5h-10v-.5h-10v.5h-10v-.5h-10v.5h-10v-.5h-10v.5h-10v-.5h-10v.5h-10v-.5h-10v.5h-10v-.5h-10v.5h-10v-.5h-10v.5h-10v-.5h-10v.5h-10v-.5h-10v.5h-10v-.5H95v.5H85v-.5H75v.5H65v-.5H55v.5H45v-.5H35v.5H25v-.5H15v.5H5v-.5H.5v-4.688H0v-10.374h.5v-10.376H0v-10.374h.5v-10.376H0v-10.374h.5v-10.376H0v-10.374h.5v-10.376H0v-10.374h.5v-10.376H0v-10.374h.5v-10.376H0v-10.374h.5v-10.376H0v-10.375h.5V120c0-1.748.038-3.488.112-5.218l-.5-.022c.152-3.519.454-6.999.902-10.433l.496.065a119.07 119.07 0 0 1 1.8-10.268l-.488-.108c.756-3.428 1.66-6.8 2.703-10.112l.477.15c1.049-3.33 2.24-6.599 3.567-9.797l-.462-.192c1.342-3.236 2.821-6.4 4.43-9.486l.444.231c1.612-3.09 3.355-6.1 5.221-9.024l-.421-.27a120.305 120.305 0 0 1 6.012-8.57l.396.305a120.154 120.154 0 0 1 6.706-7.984l-.368-.338c2.36-2.573 4.83-5.044 7.403-7.403l.338.368a120.122 120.122 0 0 1 7.984-6.705l-.305-.397a120.305 120.305 0 0 1 8.57-6.012l.27.421a119.388 119.388 0 0 1 9.024-5.22l-.231-.444c3.086-1.61 6.25-3.09 9.487-4.431l.191.462A118.608 118.608 0 0 1 84.054 6l-.15-.477A119.097 119.097 0 0 1 94.016 2.82l.108.488a119.07 119.07 0 0 1 10.268-1.799l-.065-.496c3.434-.448 6.914-.75 10.433-.902l.022.5C116.512.538 118.252.5 120 .5h5V0h10v.5h10V0h10v.5h10V0h10v.5h10V0h10v.5h10V0h10v.5h10V0h10v.5h10V0h10v.5h10V0h10v.5h10V0h10v.5h10V0h10v.5h10V0h10v.5h10V0h10v.5h10V0h10v.5h10V0h10v.5h10V0h10v.5h10V0h10v.5h10V0h10v.5h10V0h10v.5h10V0h10v.5h10V0h10v.5h10V0Z" stroke="#FDFDFD" stroke-linejoin="round" stroke-dasharray="10 10"/></svg>