<svg width="470" height="332" fill="none" xmlns="http://www.w3.org/2000/svg"><path d="M0 14.647V4.882h.5V.5h4.361V0h9.722v.5h9.722V0h9.723v.5h9.722V0h9.722v.5h9.722V0h9.723v.5h9.722V0h9.722v.5h9.722V0h9.722v.5h9.723V0h9.722v.5h9.722V0h9.722v.5h9.723V0h9.722v.5h9.722V0h9.722v.5h9.723V0h9.722v.5h9.722V0h9.722v.5h9.722V0h9.723v.5h9.722V0h9.722v.5h9.722V0h9.723v.5h9.722V0h9.722v.5h9.722V0h9.722v.5h9.723V0h9.722v.5H350c1.748 0 3.488.038 5.218.112l.022-.5c3.519.152 6.999.454 10.433.902l-.065.496c3.472.453 6.897 1.055 10.268 1.799l.108-.488c3.428.756 6.801 1.66 10.112 2.703l-.151.477c3.332 1.049 6.6 2.24 9.798 3.567l.192-.462a119.44 119.44 0 0 1 9.486 4.43l-.231.444c3.09 1.612 6.1 3.355 9.024 5.221l.269-.421a120.231 120.231 0 0 1 8.571 6.012l-.305.396a120.105 120.105 0 0 1 7.984 6.706l.338-.368a120.76 120.76 0 0 1 7.403 7.403l-.368.338a120.107 120.107 0 0 1 6.705 7.984l.397-.305a120.27 120.27 0 0 1 6.012 8.57l-.421.27a119.659 119.659 0 0 1 5.221 9.024l.443-.231c1.61 3.086 3.089 6.25 4.431 9.487l-.462.191a118.202 118.202 0 0 1 3.567 9.797l.477-.15a118.82 118.82 0 0 1 2.703 10.112l-.488.108a119.209 119.209 0 0 1 1.799 10.268l.496-.065c.448 3.434.75 6.914.902 10.433l-.5.022c.074 1.73.112 3.47.112 5.218v4.818h.5v9.636h-.5v9.637h.5v9.636h-.5v9.637h.5V173h-.5v9.636h.5v9.637h-.5v9.636h.5v9.636h-.5v9.637h.5v9.636h-.5v9.637h.5v9.636h-.5v9.636h.5v9.637h-.5V279h.5v9.636h-.5v9.637h.5v9.636h-.5v9.636h.5v9.637h-.5v4.318h-4.396v.5h-9.792v-.5h-9.791v.5h-9.792v-.5h-9.792v.5h-9.791v-.5h-9.792v.5h-9.792v-.5h-9.791v.5h-9.792v-.5h-9.792v.5h-9.791v-.5h-9.792v.5h-9.792v-.5h-9.791v.5h-9.792v-.5h-9.791v.5h-9.792v-.5h-9.792v.5h-9.791v-.5h-9.792v.5h-9.792v-.5h-9.791v.5h-9.792v-.5h-9.792v.5h-9.791v-.5h-9.792v.5h-9.792v-.5h-9.791v.5h-9.792v-.5h-9.792v.5h-9.791v-.5h-9.792v.5h-9.792v-.5h-9.791v.5h-9.792v-.5h-9.792v.5h-9.792v-.5h-9.791v.5h-9.792v-.5h-9.791v.5h-9.792v-.5h-9.792v.5h-9.791v-.5H34.27v.5h-9.792v-.5h-9.791v.5H4.896v-.5H.5v-4.382H0v-9.765h.5v-9.765H0v-9.764h.5v-9.765H0v-9.765h.5v-9.765H0v-9.764h.5V249H0v-9.765h.5v-9.764H0v-9.765h.5v-9.765H0v-9.764h.5v-9.765H0v-9.765h.5v-9.765H0v-9.764h.5v-9.765H0v-9.765h.5v-9.764H0v-9.765h.5v-9.765H0v-9.765h.5v-9.764H0V83h.5v-9.765H0v-9.764h.5v-9.765H0V43.94h.5v-9.765H0v-9.764h.5v-9.765H0Z" stroke="#FDFDFD" stroke-linejoin="round" stroke-dasharray="10 10"/></svg>