<svg width="16" height="16" fill="none" xmlns="http://www.w3.org/2000/svg"><path d="M16 16V.004h-1.227V16H16ZM3.69 13.997V2H2.461v11.997H3.69Zm-2.463 1.999V0H0v15.996h1.227Zm4.924-3.998V4H4.924v7.998h1.227ZM8.614 10V6H7.386v4h1.227Zm2.462 2V4.002H9.849V12h1.227Zm2.462 2V2.003H12.31V14h1.227Z" fill="#FA9F42"/><path d="M16 16V.004h-1.227V16H16ZM3.69 13.997V2H2.461v11.997H3.69Zm-2.463 1.999V0H0v15.996h1.227Zm4.924-3.998V4H4.924v7.998h1.227ZM8.614 10V6H7.386v4h1.227Zm2.462 2V4.002H9.849V12h1.227Zm2.462 2V2.003H12.31V14h1.227Z" fill="#FA9F42"/></svg>